<svg width="1234" height="176" viewBox="0 0 1234 176" fill="none" xmlns="http://www.w3.org/2000/svg">
<path d="M87.3193 176C38.943 176 0 139.011 0 88.4835V88C0 38.6813 37.7336 0 89.0125 0C123.36 0 146.097 14.5055 160.851 35.0549L125.537 62.3736C115.861 50.5275 104.977 42.5495 88.5287 42.5495C64.8243 42.5495 48.1345 62.8571 48.1345 87.5165V88C48.1345 113.385 64.8243 133.209 88.5287 133.209C106.186 133.209 116.345 124.989 126.746 112.659L162.061 137.802C145.855 159.802 124.569 176 87.3193 176Z" fill="black"/>
<path d="M358.832 172.616V3.38477H408.418L448.812 68.9013L489.206 3.38477H538.792V172.616H492.109V75.4287L448.812 141.67H447.845L404.79 75.6705V172.616H358.832Z" fill="black"/>
<path d="M634.375 3.38477H561.568V172.616H608.493V124.264H631.956C673.801 124.264 704.52 103.231 704.52 63.0991V62.6155C704.52 25.143 676.946 3.38477 634.375 3.38477ZM657.837 65.2749C657.837 78.8133 647.436 87.5166 630.988 87.5166H608.493V42.7914H630.747C647.436 42.7914 657.837 50.2859 657.837 64.7914V65.2749Z" fill="black"/>
<path d="M717.066 172.616V3.38477H766.652L807.046 68.9013L847.441 3.38477H897.026V172.616H850.343V75.4287L807.046 141.67H806.079L763.024 75.6705V172.616H717.066Z" fill="black"/>
<path d="M919.804 172.616V3.38477H1055.98V43.0331H966.245V68.9013H1047.52V105.89H966.245V132.725H1057.19V172.616H919.804Z" fill="black"/>
<path d="M1074.12 172.616V3.38477H1117.9L1187.56 92.8353V3.38477H1234V172.616H1193.12L1120.56 79.7804V172.616H1074.12Z" fill="black"/>
<path d="M349.664 172.615H316.018L305.658 146.514L293.838 115.222L286.807 97.4044L277.664 74.1956L268.408 97.4044L261.289 115.222L249.477 146.514L239.108 172.615H160.513L232.352 2.17578H277.583L349.664 172.615Z" fill="black"/>
</svg>
